<svg xmlns="http://www.w3.org/2000/svg" xmlns:xlink="http://www.w3.org/1999/xlink" width="160.494" height="36.037" viewBox="0 0 160.494 36.037"><defs><style>.a{fill:none;}.b{clip-path:url(#a);}.c{fill:#df2543;}.d{fill:#fff;}</style><clipPath id="a"><rect class="a" width="160.494" height="36.037"/></clipPath></defs><g transform="translate(0 0)"><g class="b" transform="translate(0 0)"><path class="c" d="M38.27,3.774A7.47,7.47,0,0,0,31.735,0H7.545A7.547,7.547,0,0,0,1.011,11.321L13.106,32.264a7.548,7.548,0,0,0,13.07,0L38.269,11.321a7.469,7.469,0,0,0,0-7.547M17.1,2.766h8.353L23.274,6.461l-2.481,4.215a1.338,1.338,0,0,1-2.305,0L16,6.459h0L13.828,2.766ZM12.23,25.217,3.407,9.938A4.734,4.734,0,0,1,3.42,5.132h0A4.91,4.91,0,0,1,7.677,2.765,5.152,5.152,0,0,1,12.115,5.3l5.026,8.535a3,3,0,0,1,0,3.042ZM35.877,9.938,23.848,30.769a4.912,4.912,0,0,1-4.177,2.5A4.731,4.731,0,0,1,15.5,30.88l-.179-.31a5.146,5.146,0,0,1,.022-5.189L27.169,5.3a5.152,5.152,0,0,1,4.438-2.537,4.91,4.91,0,0,1,4.256,2.366,4.731,4.731,0,0,1,.012,4.806Z" transform="translate(0 0)"/><path class="d" d="M81.145,32.34h0a3.967,3.967,0,0,1-3.729-2.613L70.894,11.776a1.924,1.924,0,0,1,3.615-1.317l6.1,16.718a.566.566,0,0,0,1.063,0l6.1-16.718A1.924,1.924,0,0,1,91.4,11.776L84.875,29.727a3.968,3.968,0,0,1-3.73,2.613" transform="translate(-20.515 -2.665)"/><path class="d" d="M182.5,20.612a11.49,11.49,0,0,1-3.5,8.431,12.006,12.006,0,0,1-16.907,0,11.491,11.491,0,0,1-3.5-8.431,11.493,11.493,0,0,1,3.5-8.431,11.9,11.9,0,0,1,16.907,0,11.491,11.491,0,0,1,3.5,8.431m-3.842,0a8.181,8.181,0,0,0-8.115-8.092,7.782,7.782,0,0,0-5.7,2.4,8,8,0,0,0,0,11.415,7.818,7.818,0,0,0,5.7,2.373,7.9,7.9,0,0,0,5.72-2.373,7.809,7.809,0,0,0,2.4-5.719" transform="translate(-45.966 -2.509)"/><path class="d" d="M215.9,32.183a1.922,1.922,0,0,1-1.922-1.922V18.69a6.21,6.21,0,0,0-6.254-6.17,6.208,6.208,0,0,0-4.383,1.914,5.932,5.932,0,0,0-1.7,4.257V30.262a1.921,1.921,0,0,1-1.921,1.922h-.023a1.921,1.921,0,0,1-1.921-1.922V18.69a9.622,9.622,0,0,1,3.028-7.007,9.593,9.593,0,0,1,13.991,0,9.622,9.622,0,0,1,3.029,7.007V30.262a1.921,1.921,0,0,1-1.921,1.922" transform="translate(-57.323 -2.508)"/><path class="d" d="M111.708,33.015a7.672,7.672,0,0,0,6.016,1.192,7.874,7.874,0,0,0,3.578-1.724A8.1,8.1,0,0,1,108.29,28.1h-.026a7.856,7.856,0,0,0,3.444,4.911" transform="translate(-31.38 -8.146)"/><path class="d" d="M108.311,22.5h.015c.036-.141.075-.281.117-.42-.045.138-.092.274-.132.42" transform="translate(-31.394 -6.401)"/><path class="d" d="M108.5,22.074l.009-.026-.009.026" transform="translate(-31.448 -6.39)"/><path class="d" d="M109.6,20.733A1.98,1.98,0,0,0,111.6,22.6h10.72l3.93.036a11.458,11.458,0,0,0-.822-6.781,11.835,11.835,0,0,0-4.391-5.24,11.96,11.96,0,0,0-16.577,3.414,11.393,11.393,0,0,0-1.736,8.964,11.786,11.786,0,0,0,5.188,7.558,11.885,11.885,0,0,0,16.471-3.294l-1.816-1.2a1.889,1.889,0,0,0-2.38.264q-.274.273-.573.518a7.87,7.87,0,0,1-3.578,1.724,7.671,7.671,0,0,1-6.015-1.192,7.856,7.856,0,0,1-3.444-4.911h.026a8.122,8.122,0,0,1,.023-3.855h-.016c.04-.145.087-.281.132-.42l.009-.026c.037-.113.074-.226.113-.335.053-.144.109-.286.169-.426.041-.1.085-.192.129-.285l.051-.105a7.3,7.3,0,0,1,.469-.839c.026-.039.055-.073.082-.112.1-.143.2-.283.306-.42.06-.077.121-.155.183-.229.1-.115.2-.227.3-.336.152-.163.312-.319.474-.471l.026-.025q.262-.238.543-.449l.067-.05c.133-.1.271-.194.41-.284s.28-.176.425-.258l.075-.044a8.068,8.068,0,0,1,3.908-1l.1,0a7.389,7.389,0,0,1,1.908.248l.1.027c.058.016.115.031.173.048a8.107,8.107,0,0,1,5.609,5.943H111.522a1.926,1.926,0,0,0-1.925,1.985" transform="translate(-29.696 -2.496)"/><path class="d" d="M151.752,8.655h0a9.616,9.616,0,0,0-7.006,3.029,9.618,9.618,0,0,0-3.029,7.006V30.252a1.933,1.933,0,0,0,3.865,0v-11.5a6.217,6.217,0,0,1,1.675-4.286,5.964,5.964,0,0,1,4.5-1.945,1.932,1.932,0,1,0,0-3.865" transform="translate(-41.076 -2.509)"/></g></g></svg>