<svg xmlns="http://www.w3.org/2000/svg" width="18" height="18" viewBox="0 0 18 18"><defs><style>.a{fill:#253340;}.b{fill:none;}</style></defs><g transform="translate(-987 -608)"><g transform="translate(989.767 610.767)"><path class="a" d="M72.831,65.039a2.6,2.6,0,0,1,2.6,2.6v5.195a2.6,2.6,0,0,1-2.6,2.6H67.636a2.6,2.6,0,0,1-2.6-2.6V67.636a2.6,2.6,0,0,1,2.6-2.6h5.195m0-1.039H67.636A3.647,3.647,0,0,0,64,67.636v5.195a3.647,3.647,0,0,0,3.636,3.636h5.195a3.647,3.647,0,0,0,3.636-3.636V67.636A3.647,3.647,0,0,0,72.831,64Z" transform="translate(-64 -64)"/><path class="a" d="M336.779,129.558a.779.779,0,1,1,.779-.779A.777.777,0,0,1,336.779,129.558Z" transform="translate(-327.169 -125.922)"/><path class="a" d="M163.117,161.039a2.078,2.078,0,1,1-2.078,2.078,2.08,2.08,0,0,1,2.078-2.078m0-1.039a3.117,3.117,0,1,0,3.117,3.117A3.118,3.118,0,0,0,163.117,160Z" transform="translate(-156.883 -156.883)"/></g><rect class="b" width="18" height="18" transform="translate(987 608)"/></g></svg>