<svg xmlns="http://www.w3.org/2000/svg" width="18" height="18" viewBox="0 0 18 18"><defs><style>.a{fill:#253340;fill-rule:evenodd;}.b{fill:none;}</style></defs><g transform="translate(-917 -608)"><g transform="translate(919 611)"><path class="a" d="M313.478,165.33a5.4,5.4,0,0,1-1.588.446,2.829,2.829,0,0,0,1.216-1.568,5.446,5.446,0,0,1-1.757.687,2.726,2.726,0,0,0-2.018-.895,2.8,2.8,0,0,0-2.764,2.835,2.9,2.9,0,0,0,.071.646,7.786,7.786,0,0,1-5.7-2.964,2.887,2.887,0,0,0-.374,1.427,2.855,2.855,0,0,0,1.23,2.36,2.715,2.715,0,0,1-1.253-.354v.035a2.819,2.819,0,0,0,2.219,2.78,2.637,2.637,0,0,1-.729.1,2.673,2.673,0,0,1-.521-.051,2.776,2.776,0,0,0,2.583,1.968A5.46,5.46,0,0,1,300.66,174a5.561,5.561,0,0,1-.66-.039,7.7,7.7,0,0,0,4.239,1.273,7.921,7.921,0,0,0,7.868-8.067c0-.123,0-.247-.007-.367a5.676,5.676,0,0,0,1.379-1.468" transform="translate(-300 -164)"/></g><rect class="b" width="18" height="18" transform="translate(917 608)"/></g></svg>