<svg xmlns="http://www.w3.org/2000/svg" xmlns:xlink="http://www.w3.org/1999/xlink" width="1920" height="300.7" viewBox="0 0 1920 300.7"><defs><style>.a{fill:url(#a);}.b{fill:#fff;}.c{fill:url(#b);}.d{fill:url(#c);}.e{fill:#ededed;}.f{fill:url(#d);}.g{fill:url(#e);}.h{fill:url(#f);}.i{fill:url(#g);}.j{fill:url(#h);}.k{fill:url(#i);}.l{fill:url(#j);}</style><linearGradient id="a" x1="0.5" y1="0.92" x2="0.5" y2="0.305" gradientUnits="objectBoundingBox"><stop offset="0" stop-color="#fff"/><stop offset="1" stop-color="#fafafa"/></linearGradient><linearGradient id="b" x1="0.5" y1="0.874" x2="0.5" y2="0.13" gradientUnits="objectBoundingBox"><stop offset="0" stop-color="#f9f9f9"/><stop offset="1" stop-color="#eaeaea"/></linearGradient><linearGradient id="c" x1="0.83" y1="0.863" x2="0.248" y2="0.256" gradientUnits="objectBoundingBox"><stop offset="0" stop-color="#e8e8e8"/><stop offset="1" stop-color="#dedede"/></linearGradient><linearGradient id="d" x1="0.5" y1="0.918" x2="0.5" y2="0.111" xlink:href="#b"/><linearGradient id="e" x1="0.803" y1="0.702" x2="0.33" y2="0.257" xlink:href="#c"/><linearGradient id="f" x1="0.835" y1="0.59" x2="0.295" y2="0.191" xlink:href="#c"/><linearGradient id="g" x1="0.465" y1="0.759" x2="0.495" y2="0.179" xlink:href="#c"/><linearGradient id="h" x1="0.771" y1="0.6" x2="0.283" y2="0.311" xlink:href="#c"/><linearGradient id="i" x1="0.5" y1="0.747" x2="0.5" y2="0.097" xlink:href="#b"/><linearGradient id="j" x1="1.249" y1="0.803" x2="0.459" y2="0.404" xlink:href="#c"/></defs><path class="a" d="M0,106.1l12.7,16.6,16.6-22.6,71.4-34.9,14,55.7,60.4-27,101-34.6,78,80.3L539.3,123,798.8,67l104.3,85.6,82.1-45,471.7-64,114.7,88.3L1685,98.1l235,72V300.7H0Z"/><path class="b" d="M29.3,100.1,0,80v26.1l12.7,16.6Z"/><path class="c" d="M29.3,100.1,87.4,71.7,34,20.4,0,29.1V80Z"/><path class="d" d="M34,20.4l66.7,44.8L87.4,71.7Z"/><path class="e" d="M100.7,65.2,177.9,93l-63.2,27.9Z"/><path class="b" d="M100.7,65.2"/><path class="f" d="M105.3,66.8,210.4,48.9l98.9-27.1,135.6,40,31.1-16L649.3,19.6,897.8,66.9l70.6-46.2,47.8,54.9,8.7-37.8,76.7-25.4,18.2,65.4,30.6-53.1,132.5,36,225.8-43.1,26,44.5-77.8-18.5-471.7,64L798.8,67,539.3,123l-15.8,1.4L276.1,59.3,177.9,93Z"/><path class="e" d="M276.1,59.3l247.4,65.1L354.1,139.6Z"/><path class="g" d="M309.3,21.8,476,45.8l-31.1,16Z"/><path class="e" d="M798.8,67l104.3,85.6,82.1-45Z"/><path class="h" d="M968.4,20.7l56.5,17.1-8.7,37.8Z"/><path class="i" d="M1101.6,12.4l48.8,12.3-30.6,53.1Z"/><path class="e" d="M1456.9,43.6,1685,98.1l-113.4,33.8Z"/><path class="j" d="M1508.7,17.6l32.1,13.7,3.9,33.2-10-2.4Z"/><path class="k" d="M1540.8,31.3l129.4,19.4,158.5-30.3L1870.5,0,1920,80.3v89.8l-235-72L1544.7,64.5Z"/><path class="l" d="M1870.5,0,1920,28.4V80.3Z"/></svg>