<svg xmlns="http://www.w3.org/2000/svg" xmlns:xlink="http://www.w3.org/1999/xlink" width="70" height="70" viewBox="0 0 70 70"><defs><style>.a,.b,.f{fill:none;}.b{stroke:#df2543;}.b,.f{stroke-width:1.5px;}.c{fill:#df2543;}.d{clip-path:url(#a);}.e{clip-path:url(#b);}.f{stroke:#fff;stroke-linecap:round;stroke-linejoin:round;}.g{opacity:0.4;}.h{clip-path:url(#c);}.i{stroke:none;}</style><clipPath id="a"><rect class="a" width="33.611" height="33.611"/></clipPath><clipPath id="b"><rect class="a" width="33.611" height="33.611" transform="translate(0 0)"/></clipPath><clipPath id="c"><rect class="a" width="6.278" height="6.278" transform="translate(21.642 6.725)"/></clipPath></defs><g transform="translate(-1016 -4103)"><g class="b" transform="translate(1026 4113)"><rect class="i" width="60" height="60"/><rect class="a" x="0.75" y="0.75" width="58.5" height="58.5"/></g><g transform="translate(-100 -241.5)"><rect class="c" width="60" height="60" transform="translate(1116 4344.5)"/><g transform="translate(1129 4357.5)"><g class="d"><g class="e"><path class="f" d="M16.805,5.9A8.5,8.5,0,0,0,2.747,12.333c0,2.932,1.941,5.259,3.71,7.1L16.8,29.777,27.659,18.923c1.65-1.785,3.2-3.931,3.2-6.59A8.5,8.5,0,0,0,16.8,5.905"/><g class="g"><g class="h"><path class="f" d="M27.17,12.252a4.777,4.777,0,0,0-4.778-4.777"/></g></g></g></g></g></g></g></svg>