<svg xmlns="http://www.w3.org/2000/svg" width="18" height="18" viewBox="0 0 18 18"><defs><style>.a{fill:#67c15e;fill-rule:evenodd;}</style></defs><path class="a" d="M709,360a8.994,8.994,0,0,0-7.284,14.275l-1.121,3.344,3.459-1.106A9,9,0,1,0,709,360Zm-2.513,4.571c-.175-.418-.307-.434-.571-.444q-.151-.01-.3-.01a1.306,1.306,0,0,0-.921.322,2.874,2.874,0,0,0-.92,2.19,5.144,5.144,0,0,0,1.068,2.715,11.267,11.267,0,0,0,4.48,3.957c2.068.857,2.682.778,3.153.677a2.536,2.536,0,0,0,1.767-1.27,2.236,2.236,0,0,0,.154-1.249c-.064-.111-.239-.174-.5-.307s-1.55-.767-1.794-.852a.5.5,0,0,0-.645.2,10.976,10.976,0,0,1-.7.931.568.568,0,0,1-.635.1,6.629,6.629,0,0,1-2.111-1.3,8.012,8.012,0,0,1-1.46-1.815c-.154-.264-.016-.418.106-.561.132-.164.259-.281.391-.434a1.6,1.6,0,0,0,.291-.413.538.538,0,0,0-.038-.488c-.063-.132-.592-1.423-.809-1.947Z" transform="translate(-700 -360)"/></svg>