<svg xmlns="http://www.w3.org/2000/svg" xmlns:xlink="http://www.w3.org/1999/xlink" width="150" height="121" viewBox="0 0 150 121"><defs><style>.a{fill:none;}.a,.c{stroke:#df2543;stroke-miterlimit:10;stroke-width:1.5px;}.b{clip-path:url(#a);}.c{fill:rgba(223,37,67,0.25);}</style><clipPath id="a"><rect class="a" width="150" height="121" transform="translate(0 0.324)"/></clipPath></defs><g transform="translate(0 -0.323)"><g class="b"><path class="c" d="M140.074,28.4a42.185,42.185,0,0,1-15.909,33.1l-12.347,9.875L99.47,61.5A42.177,42.177,0,0,1,83.561,28.4V15.066L88.94,13.99A46.267,46.267,0,0,0,111.817,2.109a46.255,46.255,0,0,0,22.877,11.873l5.379,1.084Z" transform="translate(8.602 0.217)"/><path class="a" d="M130.109,59.379v40.632H16.494V30.169H80.809" transform="translate(1.698 3.106)"/><path class="a" d="M138.734,52.359v56.217H9.343V23.067H91.2" transform="translate(0.962 2.375)"/><path class="a" d="M144.774,100.595H4.919l-3.428,3.429v4.618H148.2v-4.618Z" transform="translate(0.153 10.355)"/><path class="c" d="M51.006,40.694A24.186,24.186,0,1,1,26.82,64.88,24.187,24.187,0,0,1,51.006,40.694Z" transform="translate(2.761 4.189)"/><path class="a" d="M48.973,48.841a7.324,7.324,0,1,1-7.324,7.324A7.324,7.324,0,0,1,48.973,48.841Z" transform="translate(4.287 5.028)"/><line class="a" x2="14.091" transform="translate(86.752 74.214)"/><line class="a" x2="33.667" transform="translate(86.752 82.808)"/><line class="a" x2="33.667" transform="translate(86.752 91.211)"/><path class="a" d="M37.757,73.483l4.69-6.2H56.289l4.69,6.2" transform="translate(3.887 6.927)"/><path class="a" d="M51.259,100.595l2.814,4.024h31.3l2.813-4.024" transform="translate(5.277 10.355)"/></g></g></svg>