<svg xmlns="http://www.w3.org/2000/svg" xmlns:xlink="http://www.w3.org/1999/xlink" width="66.5" height="66.5" viewBox="0 0 66.5 66.5"><defs><style>.a,.c{fill:none;}.b{clip-path:url(#a);}.c{stroke:#df2543;stroke-linecap:round;stroke-linejoin:round;stroke-width:1.5px;}.d{fill:rgba(223,37,67,0.25);fill-rule:evenodd;}</style><clipPath id="a"><rect class="a" width="66.5" height="66.5"/></clipPath></defs><g class="b"><rect class="c" width="65" height="65" transform="translate(0.75 0.75)"/><path class="c" d="M42.309,31.408a4.676,4.676,0,0,0,0-9.352"/><path class="c" d="M24.095,31.408a4.676,4.676,0,0,1,0-9.352"/><path class="c" d="M16.678,41.889l.217-3.493,5.051-1.907"/><path class="c" d="M40.669,42.752V36.975H23.875v5.777" transform="translate(1)"/><path class="c" d="M49.914,41.889,49.7,38.4l-5.05-1.907"/><path class="d" d="M33.2,32.976a6.2,6.2,0,1,1,4.4-1.814,6.2,6.2,0,0,1-4.4,1.814"/><path class="c" d="M33.2,32.976a6.2,6.2,0,1,1,4.4-1.814A6.2,6.2,0,0,1,33.2,32.976Z"/></g></svg>