<svg xmlns="http://www.w3.org/2000/svg" width="23" height="23" viewBox="0 0 23 23"><defs><style>.a{fill:none;}</style></defs><g transform="translate(3.535 3.535)"><path d="M75.284,65.328A3.328,3.328,0,0,1,78.6,68.646v6.637A3.328,3.328,0,0,1,75.284,78.6H68.646a3.328,3.328,0,0,1-3.319-3.319V68.646a3.328,3.328,0,0,1,3.319-3.319h6.637m0-1.328H68.646A4.66,4.66,0,0,0,64,68.646v6.637a4.66,4.66,0,0,0,4.646,4.646h6.637a4.66,4.66,0,0,0,4.646-4.646V68.646A4.66,4.66,0,0,0,75.284,64Z" transform="translate(-64 -64)"/><path d="M337,129.991a1,1,0,1,1,1-1A.993.993,0,0,1,337,129.991Z" transform="translate(-324.716 -125.345)"/><path d="M163.983,161.327a2.655,2.655,0,1,1-2.655,2.655,2.657,2.657,0,0,1,2.655-2.655m0-1.327a3.982,3.982,0,1,0,3.982,3.982A3.983,3.983,0,0,0,163.983,160Z" transform="translate(-156.018 -156.018)"/></g><rect class="a" width="23" height="23" transform="translate(0)"/></svg>