<svg xmlns="http://www.w3.org/2000/svg" xmlns:xlink="http://www.w3.org/1999/xlink" width="226" height="50.745" viewBox="0 0 226 50.745"><defs><style>.a{fill:none;}.b{clip-path:url(#a);}.c{fill:#df2543;}.d{fill:#253340;}.e{fill:#fff;}</style><clipPath id="a"><rect class="a" width="226" height="50.745" transform="translate(0 0)"/></clipPath></defs><g class="b"><path class="c" d="M53.89,5.314A10.52,10.52,0,0,0,44.688,0H10.625a10.628,10.628,0,0,0-9.2,15.942l17.031,29.49a10.629,10.629,0,0,0,18.405,0l17.029-29.49a10.518,10.518,0,0,0,0-10.628M24.074,3.895H35.836L32.774,9.1,29.28,15.034a1.884,1.884,0,0,1-3.246,0L22.536,9.1v0l-3.063-5.2ZM17.222,35.51,4.8,13.994a6.666,6.666,0,0,1,.019-6.767h0a6.914,6.914,0,0,1,5.993-3.334A7.254,7.254,0,0,1,17.06,7.465l7.077,12.019a4.219,4.219,0,0,1,0,4.284Zm33.3-21.516L33.581,43.327A6.916,6.916,0,0,1,27.7,46.85a6.662,6.662,0,0,1-5.869-3.366l-.252-.437a7.246,7.246,0,0,1,.031-7.307L38.258,7.467a7.255,7.255,0,0,1,6.249-3.572A6.915,6.915,0,0,1,50.5,7.227a6.662,6.662,0,0,1,.017,6.767Z"/><path class="d" d="M85.377,41.787h0a5.587,5.587,0,0,1-5.251-3.68L70.942,12.829a2.709,2.709,0,0,1,5.091-1.854l8.6,23.542a.8.8,0,0,0,1.5,0l8.6-23.542a2.709,2.709,0,0,1,5.091,1.854L90.629,38.107a5.588,5.588,0,0,1-5.252,3.68"/><path class="d" d="M192.26,25.492a16.18,16.18,0,0,1-4.933,11.872,16.906,16.906,0,0,1-23.807,0,16.182,16.182,0,0,1-4.935-11.872A16.183,16.183,0,0,1,163.52,13.62a16.752,16.752,0,0,1,23.807,0,16.181,16.181,0,0,1,4.933,11.872m-5.41,0a10.894,10.894,0,0,0-3.373-8.021,11.26,11.26,0,0,0-16.075,0,10.894,10.894,0,0,0-3.373,8.021,11,11,0,0,0,3.373,8.053,11.009,11.009,0,0,0,8.021,3.342,11.12,11.12,0,0,0,8.054-3.342,11,11,0,0,0,3.373-8.053"/><path class="d" d="M223.295,41.787a2.706,2.706,0,0,1-2.706-2.706v-16.3a8.744,8.744,0,0,0-8.806-8.689,8.742,8.742,0,0,0-6.172,2.695,8.354,8.354,0,0,0-2.4,5.994v16.3a2.705,2.705,0,0,1-2.705,2.706h-.032a2.705,2.705,0,0,1-2.705-2.706v-16.3a13.549,13.549,0,0,1,4.264-9.867,13.509,13.509,0,0,1,19.7,0A13.55,13.55,0,0,1,226,22.786v16.3a2.705,2.705,0,0,1-2.705,2.706"/><path class="e" d="M113.113,35.02a10.8,10.8,0,0,0,8.471,1.679,11.088,11.088,0,0,0,5.038-2.427A11.4,11.4,0,0,1,108.3,28.1h-.037a11.063,11.063,0,0,0,4.849,6.916"/><path class="e" d="M108.311,22.676h.021c.05-.2.106-.4.165-.591-.064.2-.129.386-.186.591"/><path class="e" d="M108.5,22.084l.012-.036-.012.036"/><path class="d" d="M112.512,25.681a2.788,2.788,0,0,0,2.824,2.629h15.1l5.534.051a16.135,16.135,0,0,0-1.157-9.549,16.665,16.665,0,0,0-6.183-7.379A16.1,16.1,0,0,0,115.96,9a16.242,16.242,0,0,0-10.677,7.243,16.043,16.043,0,0,0-2.445,12.622,16.6,16.6,0,0,0,7.305,10.643,16.736,16.736,0,0,0,23.194-4.639l-2.557-1.695a2.659,2.659,0,0,0-3.351.372q-.386.384-.807.73a11.083,11.083,0,0,1-5.038,2.427,10.8,10.8,0,0,1-8.47-1.679,11.062,11.062,0,0,1-4.849-6.916h.036a11.437,11.437,0,0,1,.032-5.429h-.022c.057-.2.123-.4.186-.591l.012-.036c.052-.159.1-.318.159-.472.074-.2.154-.4.238-.6.058-.137.12-.27.181-.4l.072-.148a10.28,10.28,0,0,1,.661-1.182c.036-.055.078-.1.115-.158.137-.2.282-.4.431-.592.085-.109.17-.218.257-.323.135-.162.275-.319.418-.473.214-.23.439-.449.668-.663l.037-.035q.369-.335.765-.632l.094-.071c.188-.139.381-.273.578-.4s.394-.248.6-.363c.036-.02.07-.042.106-.062a11.361,11.361,0,0,1,5.5-1.415c.046,0,.091,0,.136,0a10.4,10.4,0,0,1,2.687.349l.136.038c.081.023.162.043.243.068a11.415,11.415,0,0,1,7.9,8.368H115.223a2.712,2.712,0,0,0-2.711,2.8"/><path class="d" d="M155.848,8.655h0a13.541,13.541,0,0,0-9.866,4.265,13.543,13.543,0,0,0-4.266,9.866V39.067a2.721,2.721,0,0,0,5.443,0v-16.2a8.755,8.755,0,0,1,2.359-6.036,8.4,8.4,0,0,1,6.33-2.739,2.721,2.721,0,1,0,0-5.442"/></g></svg>