<svg xmlns="http://www.w3.org/2000/svg" width="35.949" height="32.97" viewBox="0 0 35.949 32.97"><defs><style>.a{fill:#fff;}</style></defs><g transform="translate(-287.691 46.235)"><path class="a" d="M35.013,3.453A6.835,6.835,0,0,0,29.035,0H6.9A6.905,6.905,0,0,0,.925,10.358l11.065,19.16a6.906,6.906,0,0,0,11.958,0l11.064-19.16a6.834,6.834,0,0,0,0-6.905M15.641,2.531h7.642l-1.989,3.38-2.27,3.857a1.224,1.224,0,0,1-2.109,0L14.642,5.91h0l-1.99-3.38ZM11.189,23.071,3.117,9.092a4.331,4.331,0,0,1,.012-4.4h0A4.492,4.492,0,0,1,7.024,2.529a4.713,4.713,0,0,1,4.06,2.321l4.6,7.809a2.741,2.741,0,0,1,0,2.783ZM32.824,9.092,21.818,28.15A4.494,4.494,0,0,1,18,30.439a4.328,4.328,0,0,1-3.813-2.187l-.164-.284a4.708,4.708,0,0,1,.02-4.747L24.857,4.851a4.714,4.714,0,0,1,4.06-2.321A4.492,4.492,0,0,1,32.811,4.7a4.328,4.328,0,0,1,.011,4.4Z" transform="translate(287.691 -46.234)"/></g></svg>