<svg xmlns="http://www.w3.org/2000/svg" width="23" height="23" viewBox="0 0 23 23"><defs><style>.a{fill-rule:evenodd;}.b{fill:none;}</style></defs><g transform="translate(0.167)"><g transform="translate(2.496 3.833)"><path class="a" d="M317.222,165.7a6.9,6.9,0,0,1-2.029.571,3.615,3.615,0,0,0,1.554-2,6.959,6.959,0,0,1-2.245.878A3.483,3.483,0,0,0,311.923,164a3.579,3.579,0,0,0-3.532,3.623,3.7,3.7,0,0,0,.091.825,9.949,9.949,0,0,1-7.284-3.787,3.688,3.688,0,0,0-.478,1.823,3.648,3.648,0,0,0,1.572,3.016,3.469,3.469,0,0,1-1.6-.452v.044a3.6,3.6,0,0,0,2.836,3.552,3.369,3.369,0,0,1-.931.128,3.415,3.415,0,0,1-.665-.065,3.547,3.547,0,0,0,3.3,2.515,6.977,6.977,0,0,1-4.388,1.552,7.107,7.107,0,0,1-.843-.05,9.839,9.839,0,0,0,5.416,1.626c6.5,0,10.053-5.52,10.053-10.308,0-.158,0-.315-.009-.469a7.252,7.252,0,0,0,1.762-1.875" transform="translate(-300 -164)"/></g><rect class="b" width="23" height="23" transform="translate(-0.167)"/></g></svg>